<svg xmlns="http://www.w3.org/2000/svg" viewBox="0 0 1090.77 385.01"><defs><style>.cls-1{fill:#1ed975;}.cls-2{fill:#595959;}</style></defs><title>mondo_addison</title><g id="Layer_2" data-name="Layer 2"><g id="Layer_1-2" data-name="Layer 1"><path class="cls-1" d="M200.8,47.79c-21.68,0-34.53,15.66-34.53,41.77V268.64c0,10.05-5.62,15.66-15.65,15.66H131.33c-9.24,0-14.85-5.61-14.85-15.66V89.56c0-26.11-12.85-41.77-34.56-41.77-20.07,0-32.09,15.66-32.09,41.77V268.64c0,10.05-7.25,15.66-19.69,15.66H14.88C5.65,284.3,0,278.69,0,268.64V79.51C0,30.94,28.53,2.4,76.72,2.4c28.92,0,53,12.45,64.24,33.33,12.44-20.88,37-33.33,65.47-33.33,48.17,0,76.68,28.54,76.68,77.11V268.64c0,10.05-5.6,15.66-15.65,15.66H248.6c-9.63,0-15.26-5.61-15.26-15.66V89.56c0-26.11-12.06-41.77-32.54-41.77"/><path class="cls-1" d="M363.7,194.34c0,29.33,13.65,46.6,36.55,46.6s36.54-17.27,36.54-46.6V92c0-29.33-13.66-46.59-36.54-46.59S363.7,62.63,363.7,92ZM400.25,0c54.22,0,86.33,32.53,86.33,87.14v112c0,54.6-32.11,87.13-86.33,87.13s-86.35-32.53-86.35-87.13v-112C313.9,32.53,346,0,400.25,0"/><path class="cls-1" d="M516.94,89.56c0-54.63,32.15-87.16,86.35-87.16C656.67,2.4,688,34.93,688,89.56V268.65c0,10-5.22,15.64-14,15.64H653.89c-8.84,0-14.08-5.6-14.08-15.64V94.38c0-29.34-13.64-46.59-36.52-46.59S566.73,65,566.73,94.38V268.65c0,10-5.61,15.64-15.65,15.64H531c-8.82,0-14.06-5.6-14.06-15.64Z"/><path class="cls-1" d="M796.16,49.78h-27.7V236.51h27.7c26.51,0,42.16-15.65,42.16-42.17V92c0-26.51-15.65-42.18-42.16-42.18m-77.49-29.7c0-10,5.62-15.67,15.66-15.67h67.46c54.21,0,85.93,30.92,85.93,82.73v112c0,51.81-31.72,82.72-85.93,82.72H734.33c-10,0-15.66-5.63-15.66-15.65Z"/><path class="cls-1" d="M967.9,194.34c0,29.33,13.64,46.6,36.55,46.6s36.53-17.27,36.53-46.6V92c0-29.33-13.65-46.59-36.53-46.59S967.9,62.63,967.9,92ZM1004.45,0c54.19,0,86.32,32.53,86.32,87.14v112c0,54.6-32.13,87.13-86.32,87.13s-86.37-32.53-86.37-87.13v-112C918.08,32.53,950.22,0,1004.45,0"/><path class="cls-2" d="M89.57,383.12l16.31-35.3a1,1,0,0,1,.89-.57h.53a.9.9,0,0,1,.89.57l16.16,35.3a.93.93,0,0,1-.9,1.37h-4.56a1.51,1.51,0,0,1-1.52-1.05l-2.57-5.67H99.12l-2.57,5.67A1.6,1.6,0,0,1,95,384.49H90.46A.93.93,0,0,1,89.57,383.12ZM112.23,372,107,360.41h-.15L101.69,372Z"/><path class="cls-2" d="M134.35,348.19a1,1,0,0,1,1-.94h1.31l21.82,23.18h.05V348.77a1,1,0,0,1,1-1h4.82a1,1,0,0,1,1,1v35.3a1,1,0,0,1-1,.94H163.1l-21.93-24.07h0v22.55a1,1,0,0,1-1,1h-4.77a1,1,0,0,1-1-1Z"/><path class="cls-2" d="M192.19,383.12l16.31-35.3a1,1,0,0,1,.89-.57h.53a.9.9,0,0,1,.89.57L227,383.12a.93.93,0,0,1-.89,1.37h-4.56a1.51,1.51,0,0,1-1.52-1.05l-2.57-5.67H201.73l-2.57,5.67a1.59,1.59,0,0,1-1.52,1.05h-4.56A.93.93,0,0,1,192.19,383.12ZM214.85,372l-5.25-11.54h-.15L204.3,372Z"/><path class="cls-2" d="M237,348.77a1,1,0,0,1,.94-1h12.44a18.36,18.36,0,1,1,0,36.72H237.91a1,1,0,0,1-.94-1Zm12.75,29.32c6.82,0,11.8-5.14,11.8-12a11.56,11.56,0,0,0-11.8-12h-6v24Z"/><path class="cls-2" d="M280.91,348.77a1,1,0,0,1,.95-1h12.43a18.36,18.36,0,1,1,0,36.72H281.86a1,1,0,0,1-.95-1Zm12.75,29.32c6.82,0,11.8-5.14,11.8-12a11.56,11.56,0,0,0-11.8-12h-6v24Z"/><path class="cls-2" d="M324.86,348.77a1,1,0,0,1,1-1h4.88a1,1,0,0,1,1,1v34.72a1,1,0,0,1-1,1h-4.88a1,1,0,0,1-1-1Z"/><path class="cls-2" d="M344.36,379.35l1.89-3.25a1.21,1.21,0,0,1,1.78-.37c.26.16,4.51,3.25,7.92,3.25,2.73,0,4.78-1.78,4.78-4,0-2.67-2.26-4.51-6.67-6.29-4.93-2-9.86-5.14-9.86-11.33,0-4.67,3.46-10.07,11.8-10.07a18.45,18.45,0,0,1,10.49,3.51,1.29,1.29,0,0,1,.32,1.73l-2,3a1.38,1.38,0,0,1-1.84.63c-.42-.26-4.41-2.88-7.29-2.88s-4.62,2-4.62,3.67c0,2.46,1.94,4.14,6.19,5.87,5.09,2.05,11,5.09,11,11.86,0,5.4-4.67,10.38-12.07,10.38a16.86,16.86,0,0,1-11.54-4.09C344.15,380.45,343.89,380.19,344.36,379.35Z"/><path class="cls-2" d="M396.38,347.25a18.88,18.88,0,1,1-18.83,18.93A18.84,18.84,0,0,1,396.38,347.25Zm0,30.94a12.06,12.06,0,1,0-12-12A12.09,12.09,0,0,0,396.38,378.19Z"/><path class="cls-2" d="M427.37,348.19a1,1,0,0,1,1-.94h1.32l21.82,23.18h.05V348.77a1,1,0,0,1,1-1h4.82a1,1,0,0,1,1,1v35.3a1,1,0,0,1-1,.94h-1.26l-21.92-24.07h-.05v22.55a1,1,0,0,1-1,1h-4.78a1,1,0,0,1-1-1Z"/><path class="cls-2" d="M506.18,347.25a19.8,19.8,0,0,1,12.8,4.87,1,1,0,0,1,.06,1.47L515.78,357a.89.89,0,0,1-1.36,0,12,12,0,1,0-7.87,21.14,16.34,16.34,0,0,0,6.24-1.31v-4.46H508.6a1,1,0,0,1-1-.94v-4.15a1,1,0,0,1,1-1h10.07a1,1,0,0,1,.94,1v13.43a1,1,0,0,1-.42.84,26.49,26.49,0,0,1-13,3.41,18.86,18.86,0,0,1,0-37.71Z"/><path class="cls-2" d="M532.56,348.77a1,1,0,0,1,1-1h15A11.37,11.37,0,0,1,560,359.05c0,4.82-3.2,8.76-7.76,10.59L559.41,383a1,1,0,0,1-.89,1.52H553a.91.91,0,0,1-.84-.47l-7-13.9h-5.83v13.37a1,1,0,0,1-1,1h-4.83a1,1,0,0,1-1-1ZM548,364.5a5.34,5.34,0,0,0,5.19-5.35,5.22,5.22,0,0,0-5.19-5.08h-8.55V364.5Z"/><path class="cls-2" d="M588.93,347.25a18.88,18.88,0,1,1-18.83,18.93A18.84,18.84,0,0,1,588.93,347.25Zm0,30.94a12.06,12.06,0,1,0-12-12A12.08,12.08,0,0,0,588.93,378.19Z"/><path class="cls-2" d="M619.39,348.77a1,1,0,0,1,1-1h5a1,1,0,0,1,1,1v21.45c0,4.46,3,8,7.61,8a7.57,7.57,0,0,0,7.66-7.92v-21.5a1,1,0,0,1,1-1h5a1,1,0,0,1,1,1v21.82a14.61,14.61,0,0,1-29.21,0Z"/><path class="cls-2" d="M662.86,348.77a1,1,0,0,1,1-1h12.32a11.7,11.7,0,1,1,.05,23.4h-6.55v12.32a1,1,0,0,1-1,1h-4.82a1,1,0,0,1-1-1Zm12.9,16a5.4,5.4,0,0,0,5.4-5.46,5.23,5.23,0,0,0-5.4-5.09h-6.08v10.55Z"/><path class="cls-2" d="M732.24,347.25a17.76,17.76,0,0,1,12.69,4.87,1,1,0,0,1,.05,1.47l-3.2,3.31a.84.84,0,0,1-1.31,0,12.41,12.41,0,0,0-8.07-3.1c-6.72,0-11.7,5.62-11.7,12.22a11.88,11.88,0,0,0,11.75,12.12,12.58,12.58,0,0,0,8-3,1,1,0,0,1,1.31,0l3.26,3.36a1,1,0,0,1-.06,1.41A17.94,17.94,0,0,1,732.24,385a18.88,18.88,0,1,1,0-37.76Z"/><path class="cls-2" d="M773.14,347.25a18.88,18.88,0,1,1-18.83,18.93A18.84,18.84,0,0,1,773.14,347.25Zm0,30.94a12.06,12.06,0,1,0-12-12A12.08,12.08,0,0,0,773.14,378.19Z"/><path class="cls-2" d="M808,348a.88.88,0,0,1,.95-.78h.84a1,1,0,0,1,.89.52l11.54,24.76h.16l11.53-24.76a.93.93,0,0,1,.9-.52h.84a.88.88,0,0,1,.94.78l6.19,35.25a.91.91,0,0,1-1,1.21H837a1.12,1.12,0,0,1-1-.79l-3.1-19.88h-.16l-9.18,20.62a.89.89,0,0,1-.89.57h-.94a.94.94,0,0,1-.89-.57l-9.29-20.62h-.15l-3,19.88a1,1,0,0,1-.94.79h-4.72a1,1,0,0,1-1-1.21Z"/><path class="cls-2" d="M855.14,348.77a1,1,0,0,1,1-1h12.33a11.7,11.7,0,1,1,0,23.4H862v12.32a1,1,0,0,1-1,1h-4.83a1,1,0,0,1-1-1Zm12.91,16a5.41,5.41,0,0,0,5.4-5.46,5.24,5.24,0,0,0-5.4-5.09H862v10.55Z"/><path class="cls-2" d="M884.61,383.12l16.31-35.3a1,1,0,0,1,.9-.57h.52a.89.89,0,0,1,.89.57l16.16,35.3a.93.93,0,0,1-.89,1.37h-4.57a1.52,1.52,0,0,1-1.52-1.05l-2.57-5.67H894.16l-2.57,5.67a1.59,1.59,0,0,1-1.52,1.05h-4.56A.93.93,0,0,1,884.61,383.12ZM907.27,372,902,360.41h-.16L896.73,372Z"/><path class="cls-2" d="M929.4,348.19a1,1,0,0,1,1-.94h1.31l21.82,23.18h.05V348.77a1,1,0,0,1,1-1h4.83a1,1,0,0,1,1,1v35.3a1,1,0,0,1-1,.94h-1.26l-21.93-24.07h-.05v22.55a1,1,0,0,1-1,1h-4.78a1,1,0,0,1-1-1Z"/><path class="cls-2" d="M982.2,366.81l-12-17.52a1,1,0,0,1,.84-1.52h5.35a1,1,0,0,1,.84.47l8.39,12.07,8.4-12.07a1,1,0,0,1,.83-.47h5.41a1,1,0,0,1,.84,1.52L989,366.76v16.73a1,1,0,0,1-1,1H983.2a1,1,0,0,1-1-1Z"/></g></g></svg>