<?xml version="1.0" encoding="utf-8"?>
<!-- Generator: Adobe Illustrator 24.0.3, SVG Export Plug-In . SVG Version: 6.00 Build 0)  -->
<svg version="1.1" id="Layer_1" xmlns="http://www.w3.org/2000/svg" xmlns:xlink="http://www.w3.org/1999/xlink" x="0px" y="0px"
	 viewBox="0 0 40.7 41.3" style="enable-background:new 0 0 40.7 41.3;" xml:space="preserve">
<style type="text/css">
	.st0{fill:none;stroke:#1ED975;stroke-width:0.75;stroke-linecap:round;stroke-linejoin:round;stroke-miterlimit:10;}
</style>
<title>TM_Icons</title>
<title>TM_Icons</title>
<path class="st0" d="M32.5,8.5c1.9,0.4,3.4,2.2,3.4,4.1v2c0,1.5-1.2,2.7-2.7,2.7h-4.1c-1.5,0-2.7-1.2-2.7-2.7v-1.4
	c-4-0.4-8.2-0.4-12.2,0v1.4c0,1.5-1.2,2.7-2.7,2.7h-4c-1.5,0-2.7-1.2-2.7-2.7v-2c0-1.9,1.5-3.7,3.4-4.1C15.9,6.9,24.2,6.8,32.5,8.5z
	 M33.2,34.1H7.5V30c0-5.9,4.9-10.8,10.8-10.8h4.1c5.9,0,10.8,4.9,10.8,10.8V34.1z M18.3,16.6v2.7 M23,16.6v2.7"/>
<circle class="st0" cx="20.3" cy="26.7" r="4.7"/>
</svg>
