<?xml version="1.0" encoding="utf-8"?>
<!-- Generator: Adobe Illustrator 24.0.3, SVG Export Plug-In . SVG Version: 6.00 Build 0)  -->
<svg version="1.1" id="Layer_1" xmlns="http://www.w3.org/2000/svg" xmlns:xlink="http://www.w3.org/1999/xlink" x="0px" y="0px"
	 viewBox="0 0 40.7 41.3" style="enable-background:new 0 0 40.7 41.3;" xml:space="preserve">
<style type="text/css">
	.st0{fill:none;stroke:#1ED975;stroke-width:0.75;stroke-linecap:round;stroke-linejoin:round;stroke-miterlimit:10;}
</style>
<title>TM_Icons</title>
<title>TM_Icons</title>
<path class="st0" d="M37.5,27.2h-8.9c-3.7,0-6.9,1.2-8.9,3 M28.5,27.2l-4.9-12.5 M19.7,5l-0.5-1.3"/>
<path class="st0" d="M19.7,5c-7.3,2.9-12,8.2-9.9,13.5l0.5,1.4l3.5-1.4l0.8-1.9l1.9,0.8l14-5.4l0.8-1.9l1.9,0.8l3.5-1.4l-0.5-1.4
	C34.1,2.8,27,2.2,19.7,5z M37.5,36.2c-1.5,0-3-1.3-3-3c0,1.6-1.5,3-3,3s-3-1.3-3-3c0,1.6-1.5,3-3,3s-3-1.3-3-3c0,1.6-1.5,3-3,3
	s-3-1.3-3-3c0,1.6-1.5,3-3,3s-3-1.3-3-3c0,1.6-1.5,3-3,3s-3-1.3-3-3c0,1-0.7,1.9-1.5,2.5"/>
</svg>
