<?xml version="1.0" encoding="utf-8"?>
<!-- Generator: Adobe Illustrator 24.0.3, SVG Export Plug-In . SVG Version: 6.00 Build 0)  -->
<svg version="1.1" id="Layer_1" xmlns="http://www.w3.org/2000/svg" xmlns:xlink="http://www.w3.org/1999/xlink" x="0px" y="0px"
	 viewBox="0 0 40.7 41.3" style="enable-background:new 0 0 40.7 41.3;" xml:space="preserve">
<style type="text/css">
	.st0{fill:none;stroke:#1ED975;stroke-width:0.75;stroke-linecap:round;stroke-linejoin:round;stroke-miterlimit:10;}
</style>
<title>TM_Icons</title>
<title>TM_Icons</title>
<circle class="st0" cx="20.3" cy="20.7" r="15.5"/>
<path class="st0" d="M31.8,10.2c0,0-0.7,3.7-3.4,5.1c-2.7-0.7-5.4,1.3-4.7,1.3s1.3,2.7,1.3,2.7c0.7,0.7,2,0,2,0
	c1.7,1.7-2.7,4.7-2.7,5.4c0,0.7,1.7,1,0.7,2S23,28,23,28c0,3.4-3.4,3.4-4,3.4c-0.7,0-2-2.7-2-3.4c0-0.7,0.7-1.3,0.7-2s-1.3-2-1.3-2
	c0-2.7-2-2-4-2s-2-2.7-2-2.7s0-4.7,3.4-5.4s3.4,0.7,3.4,0.7c1.3,1.3,4,0,5.4,0c0,0,0.7-4.7-0.7-4c-1.3,0.7-2.6,0.2-2.7-1.3
	c-0.2-2.1,5.9-3.4,5.9-3.4"/>
</svg>
