<?xml version="1.0" encoding="utf-8"?>
<!-- Generator: Adobe Illustrator 24.0.3, SVG Export Plug-In . SVG Version: 6.00 Build 0)  -->
<svg version="1.1" id="Layer_1" xmlns="http://www.w3.org/2000/svg" xmlns:xlink="http://www.w3.org/1999/xlink" x="0px" y="0px"
	 viewBox="0 0 40.7 41.3" style="enable-background:new 0 0 40.7 41.3;" xml:space="preserve">
<style type="text/css">
	.st0{fill:none;stroke:#1ED975;stroke-width:0.75;stroke-linecap:round;stroke-linejoin:round;stroke-miterlimit:10;}
</style>
<title>TM_Icons</title>
<title>TM_Icons</title>
<path class="st0" d="M20.3,10.3l1.3,2.7h2.7l-2.2,1.6l0.8,3l-2.6-2l-2.7,2l1.1-3L16.3,13H19L20.3,10.3z M11.2,19.6
	c-6.6,0-6.1-8.8-6.1-10.6h3.4 M29.4,19.6c6.6,0,6.2-8.8,6.2-10.6h-3.4"/>
<path class="st0" d="M32.3,6.3H8.4C8.4,26.8,19,21,19,28.2c-0.1,4.6-2.3,6-5.9,6v2.7h14.6v-2.7c-3.7,0-6-1.3-6-6
	C21.6,21,32.3,26.7,32.3,6.3z"/>
</svg>
